<?xml version="1.0" standalone="no"?>
<!DOCTYPE svg PUBLIC "-//W3C//DTD SVG 20010904//EN"
 "http://www.w3.org/TR/2001/REC-SVG-20010904/DTD/svg10.dtd">
<svg version="1.0" xmlns="http://www.w3.org/2000/svg"
 width="1024.000000pt" height="1024.000000pt" viewBox="0 0 1024.000000 1024.000000"
 preserveAspectRatio="xMidYMid meet">
<metadata>
Created by potrace 1.14, written by Peter Selinger 2001-2017
</metadata>
<g transform="translate(0.000000,1024.000000) scale(0.100000,-0.100000)"
fill="#000000" stroke="none">
<path d="M4580 9224 c-406 -36 -742 -142 -1035 -327 -253 -160 -515 -414 -672
-651 -143 -217 -274 -541 -344 -855 -23 -103 -24 -104 -76 -148 -66 -56 -113
-127 -113 -167 0 -17 10 -51 21 -76 19 -41 21 -68 23 -327 4 -319 2 -314 92
-383 l45 -35 -6 -120 c-3 -66 -8 -148 -12 -182 -6 -62 -6 -63 -40 -69 -18 -3
-75 -4 -126 -2 -83 4 -99 8 -164 42 -93 49 -218 177 -295 303 -32 50 -113 204
-182 341 -117 234 -155 292 -190 292 -15 0 -123 -116 -142 -153 -27 -51 -14
-127 39 -239 l46 -98 -139 0 c-144 0 -190 -9 -190 -35 0 -9 28 -44 63 -79 34
-34 106 -111 160 -169 114 -124 197 -188 316 -249 48 -24 89 -47 92 -51 3 -5
9 -8 13 -8 20 3 38 0 33 -5 -10 -11 -88 7 -80 19 4 7 0 8 -12 3 -11 -4 -77 7
-152 25 -147 34 -183 33 -183 -6 0 -31 127 -221 199 -297 47 -49 64 -60 101
-66 34 -6 44 -12 42 -25 -6 -37 25 -73 98 -111 65 -34 135 -46 272 -46 l120 0
-36 -41 c-47 -51 -46 -84 3 -116 79 -54 162 -13 399 196 l92 82 98 -93 c53
-51 125 -115 160 -142 34 -27 62 -52 61 -55 -1 -19 -71 -57 -140 -76 -110 -31
-125 -44 -170 -139 -93 -199 -93 -377 2 -540 l40 -70 -16 -74 c-28 -135 -17
-199 42 -255 l30 -28 -70 -69 c-63 -62 -69 -71 -63 -97 4 -15 16 -37 27 -49
17 -18 18 -25 8 -47 -9 -21 -9 -47 0 -117 l13 -90 -47 -52 c-25 -28 -58 -71
-72 -95 -13 -24 -29 -43 -35 -43 -5 0 -7 -4 -4 -9 3 -4 -1 -16 -8 -27 -12 -16
-15 -9 -21 60 -4 43 -4 110 0 150 15 144 15 144 -44 197 -87 80 -274 179 -339
179 -36 0 -49 -15 -59 -64 -9 -42 -8 -42 -66 -17 -52 22 -135 41 -183 41 -55
0 -74 -15 -74 -59 0 -57 35 -181 70 -251 17 -34 28 -66 23 -70 -4 -3 -30 -15
-58 -25 -52 -19 -100 -59 -90 -75 3 -5 37 -30 75 -54 38 -25 102 -73 142 -108
114 -99 160 -134 208 -162 28 -16 39 -27 30 -30 -8 -2 -132 -9 -276 -14 -281
-11 -301 -15 -343 -68 -17 -22 -21 -41 -21 -105 0 -136 37 -158 310 -184 96
-9 185 -19 198 -21 l22 -4 0 -228 0 -228 -27 -2 c-38 -3 -322 -41 -355 -48
l-28 -6 0 -137 0 -138 -102 -23 c-239 -53 -425 -134 -448 -196 -22 -57 13
-100 129 -158 265 -133 898 -251 1696 -315 311 -26 394 -31 630 -41 479 -21
914 -28 1510 -24 330 2 650 6 710 9 61 3 232 10 380 15 1643 61 2742 237 2938
469 15 18 27 41 27 52 0 56 -63 120 -170 174 -79 40 -280 108 -370 126 l-60
12 0 139 c0 162 11 148 -137 168 l-93 13 0 183 c0 106 4 184 9 184 48 0 507
52 519 59 42 23 65 61 70 115 11 140 -16 166 -215 203 l-139 26 4 82 c4 80 4
82 -28 118 -67 76 -139 100 -218 72 -35 -13 -62 -16 -94 -11 l-46 7 70 162
c39 89 139 320 223 512 264 605 385 891 385 907 0 23 -29 44 -105 76 -161 69
-447 151 -735 212 -332 70 -824 135 -858 114 -9 -6 -29 -44 -45 -85 -72 -188
-361 -884 -369 -887 -4 -2 -6 -8 -2 -13 9 -15 -3 -11 -59 20 -62 35 -277 121
-300 121 -10 0 -17 8 -17 18 0 51 -100 140 -175 157 -18 4 -65 38 -115 85
l-85 80 25 17 c14 10 28 17 33 15 4 -1 7 2 7 6 0 5 42 39 94 75 236 166 455
365 499 452 72 145 119 382 135 685 9 153 12 172 47 270 117 327 209 698 222
893 17 264 -74 554 -239 764 -35 44 -63 98 -98 186 -81 207 -148 325 -261 462
-298 362 -756 610 -1274 691 -96 15 -440 26 -535 18z m1389 -5905 c61 -71 110
-91 227 -93 51 0 89 -3 84 -4 -6 -2 -8 -8 -4 -13 11 -18 -45 -29 -236 -44
-270 -21 -246 -24 -255 31 -9 61 26 161 59 167 66 13 80 8 125 -44z m278 -229
c2 -29 -8 -31 -73 -12 l-59 17 60 6 c33 3 62 6 65 7 3 1 6 -7 7 -18z m-202
-24 c46 -15 39 -20 -56 -35 -77 -13 -146 -13 -174 -1 -11 5 -15 9 -10 9 6 1 4
5 -4 10 -11 7 -4 11 25 16 21 4 44 8 49 10 24 8 134 2 170 -9z"/>
<path d="M1947 7349 c-26 -15 -21 -31 27 -78 44 -44 76 -50 76 -16 0 43 -74
110 -103 94z"/>
<path d="M1861 6961 c-7 -5 -22 -56 -33 -114 -20 -100 -20 -107 -4 -131 16
-25 132 -86 163 -86 7 0 16 6 19 13 5 13 -73 254 -95 295 -13 24 -33 33 -50
23z"/>
<path d="M1167 5873 c-12 -11 -8 -20 33 -72 42 -53 59 -61 80 -37 14 17 8 30
-38 80 -30 34 -60 45 -75 29z"/>
<path d="M1266 5168 c-69 -108 -65 -127 52 -220 92 -73 188 -121 291 -145 99
-23 428 -26 454 -4 45 37 13 56 -186 110 -321 89 -423 147 -511 289 -14 23
-33 42 -40 42 -8 0 -35 -32 -60 -72z"/>
<path d="M1757 4304 c-51 -64 -87 -132 -87 -162 0 -22 11 -27 80 -35 19 -2 93
-21 164 -41 139 -39 210 -46 219 -21 8 18 -42 80 -167 213 -87 90 -102 102
-132 102 -29 0 -40 -8 -77 -56z"/>
<path d="M2116 4295 c-8 -22 46 -80 67 -72 23 9 21 43 -3 67 -24 24 -56 26
-64 5z"/>
<path d="M2301 4101 c-24 -24 -38 -88 -22 -104 14 -14 54 22 71 64 10 23 10
32 0 44 -16 20 -26 19 -49 -4z"/>
</g>
</svg>
